<svg width="52" height="52" viewBox="0 0 52 52" fill="none" xmlns="http://www.w3.org/2000/svg">
<circle cx="26" cy="26" r="26" fill="#28284C"/>
<path d="M29.5 14L30.0735 13.1808C29.852 13.0258 29.5773 12.967 29.3118 13.0179C29.0463 13.0687 28.8127 13.2249 28.6643 13.4508L29.5 14ZM18 31.5L17.1643 30.9508L17.0447 31.1328L17.0116 31.3479L18 31.5ZM17 38L16.0116 37.8479C15.953 38.2289 16.1186 38.6097 16.4373 38.8266C16.7559 39.0436 17.1709 39.058 17.5039 38.8638L17 38ZM23 34.5L23.5039 35.3638L23.7006 35.249L23.8283 35.0603L23 34.5ZM34.5 17.5L35.3283 18.0603C35.6342 17.608 35.5208 16.9939 35.0735 16.6808L34.5 17.5ZM28.6643 13.4508L17.1643 30.9508L18.8357 32.0492L30.3357 14.5492L28.6643 13.4508ZM17.0116 31.3479L16.0116 37.8479L17.9884 38.1521L18.9884 31.6521L17.0116 31.3479ZM17.5039 38.8638L23.5039 35.3638L22.4961 33.6362L16.4961 37.1362L17.5039 38.8638ZM23.5145 33.6425L18.5145 30.6425L17.4855 32.3575L22.4855 35.3575L23.5145 33.6425ZM28.9265 14.8192L33.9265 18.3192L35.0735 16.6808L30.0735 13.1808L28.9265 14.8192ZM33.6717 16.9397L22.1717 33.9397L23.8283 35.0603L35.3283 18.0603L33.6717 16.9397Z" fill="white"/>
</svg>
