<svg width="32" height="32" viewBox="0 0 32 32" fill="none" xmlns="http://www.w3.org/2000/svg">
<mask id="mask0" mask-type="alpha" maskUnits="userSpaceOnUse" x="0" y="0" width="32" height="32">
<circle cx="16" cy="16" r="16" fill="#C4C4C4"/>
</mask>
<g mask="url(#mask0)">
<rect x="-0.325195" y="-2.16943" width="34.6329" height="36.4557" fill="#B0CBFF"/>
<path d="M21.2069 20.7004L20.0779 16.3532L16.5029 19.0988L12.5515 16.3532L10.2673 13.9933C10.5809 15.6712 11.4978 23.08 11.7989 22.5308C12.0999 21.9817 15.3112 22.302 16.8792 22.5308L20.0779 23.2173L21.2069 20.7004Z" fill="#AA9898"/>
<path d="M17.7568 18.74C17.7578 18.7312 17.7584 18.7221 17.7585 18.7128C17.7579 18.7218 17.7574 18.7309 17.7568 18.74C17.6687 19.5098 14.1284 18.7128 14.1284 18.7128C14.1284 18.7128 14.0154 21.5192 13.6266 21.8023C13.2378 22.0853 12.5616 21.7422 11.1253 22.7884C9.68906 23.8346 11.3095 23.0123 11.9833 22.7884C18.7044 22.9314 21.4215 23.9893 21.4215 23.6461C21.4215 23.0949 21.624 23.0127 21.7689 23.0328C22.0013 23.1759 21.9141 23.053 21.7689 23.0328C21.6916 22.9853 21.579 22.9083 21.4215 22.7884C20.3169 21.9477 20.1704 22.5463 17.9343 21.9303C17.9343 21.9303 17.6806 20.0329 17.7568 18.74Z" fill="#AC6373"/>
<path d="M15.9122 21.3626C15.9122 21.3626 16.8793 20.5714 17.8016 20.2139C18.724 19.8565 17.9893 21.7157 17.9893 21.7157L21.4214 21.9303L23.3519 22.5738C24.9076 23.9858 24.9003 27.5821 25.7114 31.3684C23.1374 32.5124 15.9301 33.685 15.4153 33.5134C14.9005 33.3418 7.83617 32.3694 5.54814 31.3684C6.90715 27.5357 6.89374 23.6271 8.12218 22.5738L10.2672 21.9303L13.6993 21.7155C13.6993 21.7155 13.5386 21.0989 13.5386 20.2139C13.5386 19.329 15.9122 21.3626 15.9122 21.3626Z" fill="url(#paint0_linear)"/>
<path d="M10.7787 12.4532C10.7787 14.4507 11.3979 16.256 12.3953 17.5602C13.3925 18.8643 14.7644 19.6639 16.2734 19.6639C17.7824 19.6639 19.1542 18.8643 20.1515 17.5602C21.1488 16.256 21.768 14.4507 21.768 12.4532C21.768 8.45227 19.2914 5.44509 16.2734 5.44509C13.2554 5.44509 10.7787 8.45227 10.7787 12.4532Z" fill="#F8CBBD" stroke="#825757" stroke-width="0.164835"/>
<path d="M14.7718 17.2112H17.5603C17.143 17.5824 16.7034 17.6703 16.0881 17.6703C15.4727 17.6703 14.9863 17.4257 14.7718 17.2112Z" fill="white" stroke="#A88D8D" stroke-width="0.0254237"/>
<path d="M16.166 8.70638C18.0966 9.5644 21.945 11.2955 20.2416 16.8575C18.5382 22.4195 20.1509 23.548 20.3958 24.5274C20.6407 25.5069 21.2749 25.934 20.2416 29.8022C21.7145 26.8635 23.1211 26.8635 22.9452 24.5274C22.0392 19.2527 23.5606 15.2088 22.7084 11.4193C22.1567 8.96612 21.4101 7.4458 19.2529 6.15381C17.4434 5.07002 15.4727 5.09886 14.4001 5.53494C12.6419 6.01972 11.2312 7.13772 10.1101 8.96699C8.43974 11.6923 9.40678 18.8647 8.79139 21.3626C8.17601 23.8605 8.35183 26.3736 9.67051 28.0439C10.1417 28.9926 11.2216 29.9712 13.0326 30.4138C13.2899 30.5175 13.4753 30.5426 13.4848 30.5101C13.3293 30.4817 13.1786 30.4495 13.0326 30.4138C12.2678 30.1058 10.867 29.1045 11.5543 26.8635C12.4727 23.8684 12.9098 23.6425 11.5543 18.4979C11.5543 18.4979 11.165 16.4395 11.4287 15.4725C11.6925 14.5055 11.2529 10.3736 16.166 8.70638Z" fill="url(#paint1_linear)"/>
<path d="M18.4182 14.0019C18.4182 14.0019 19.2762 13.8968 19.7052 14.4224C18.6307 14.3084 18.3622 14.3334 17.5602 14.4224C17.7747 13.9683 18.4182 14.0019 18.4182 14.0019Z" fill="#3F3F3F"/>
<path d="M14.1281 14.0019C14.1281 14.0019 13.2701 13.8968 12.8411 14.4224C13.9155 14.3084 14.1841 14.3334 14.9861 14.4224C14.7716 13.9683 14.1281 14.0019 14.1281 14.0019Z" fill="#3F3F3F"/>
<path d="M18.2648 12.4921C18.2648 12.4921 19.6433 12.387 20.0723 12.9125C18.9978 12.7985 18.2088 12.8236 17.4067 12.9125C17.6212 12.4585 18.2648 12.4921 18.2648 12.4921Z" fill="#917777"/>
<path d="M14.1222 12.4921C14.1222 12.4921 12.5608 12.387 12.1318 12.9125C13.2063 12.7985 14.1781 12.8236 14.9802 12.9125C14.7657 12.4585 14.1222 12.4921 14.1222 12.4921Z" fill="#917777"/>
<path d="M16.9991 14.8513C16.9991 15.7489 17.7737 16.4849 18.74 16.4849C19.7062 16.4849 20.4808 15.7489 20.4808 14.8513C20.4808 13.9538 19.7062 13.2177 18.74 13.2177C17.7737 13.2177 16.9991 13.9538 16.9991 14.8513Z" stroke="#9B8B86" stroke-width="0.164835"/>
<path d="M11.8511 14.8513C11.8511 15.7489 12.6258 16.4849 13.592 16.4849C14.5582 16.4849 15.3329 15.7489 15.3329 14.8513C15.3329 13.9538 14.5582 13.2177 13.592 13.2177C12.6258 13.2177 11.8511 13.9538 11.8511 14.8513Z" stroke="#9B8B86" stroke-width="0.164835"/>
<path d="M16.9169 14.8513C16.2675 14.7534 15.944 14.7617 15.4153 14.8513" stroke="#C1B9A8" stroke-width="0.164835"/>
<path d="M16.1758 16L15.6483 16.3516C16.026 16.4758 16.2377 16.482 16.6153 16.3516L16.1758 16Z" fill="#E1A5A5"/>
<path d="M15.4981 23.6338L15.8321 22.2978C15.8529 22.2146 15.9712 22.2146 15.9921 22.2978L16.3261 23.6338C16.3391 23.6858 16.2997 23.7362 16.2461 23.7362H15.5781C15.5245 23.7362 15.4851 23.6858 15.4981 23.6338Z" fill="#C4C4C4"/>
<path d="M16.0452 23.0022L15.945 22.6014C15.9387 22.5764 15.9032 22.5764 15.897 22.6014L15.7968 23.0022C15.7929 23.0178 15.8047 23.0329 15.8208 23.0329H16.0212C16.0373 23.0329 16.0491 23.0178 16.0452 23.0022Z" fill="#26204C"/>
</g>
<defs>
<linearGradient id="paint0_linear" x1="15.4153" y1="42.3078" x2="15.4153" y2="19.9994" gradientUnits="userSpaceOnUse">
<stop stop-color="#C0C0C0"/>
<stop offset="1" stop-color="#0F083A"/>
</linearGradient>
<linearGradient id="paint1_linear" x1="15.9196" y1="4.97325" x2="15.9196" y2="30.5234" gradientUnits="userSpaceOnUse">
<stop stop-color="#362A2A"/>
<stop offset="1" stop-color="#837877"/>
</linearGradient>
</defs>
</svg>
