<svg width="101" height="84" viewBox="0 0 101 84" fill="none" xmlns="http://www.w3.org/2000/svg">
<path d="M8.74067 9.04346C8.74067 9.04346 16.7517 12.5892 20.0192 17.8478C23.2235 23.0048 20.3634 27.2885 23.6078 32.375C26.1956 36.4321 26.6837 36.3369 32.8356 41.1793C35.1409 42.9939 26.6837 45.5815 26.6837 45.5815C26.6837 45.5815 27.1999 47.8013 26.6837 49.1032C26.0889 50.6037 23.6078 52.1848 23.6078 52.1848C23.6078 52.1848 26.0831 52.4739 26.6837 53.5054C27.5791 55.0431 23.6078 57.0272 23.6078 57.0272C23.6078 57.0272 24.9486 59.7927 25.6584 60.9891C27.0426 63.3223 25.7312 65.0695 23.6078 65.3913C14.8926 66.7119 4.6394 66.7119 4.6394 66.7119L10.7913 77.7174" stroke="white" stroke-width="4"/>
<path d="M91.6766 14.326C91.6766 14.326 83.6655 17.8718 80.3981 23.1304C77.1938 28.2874 80.0539 32.5711 76.8095 37.6576C74.2217 41.7147 73.7335 41.6195 67.5816 46.4619C65.2763 48.2765 73.7335 50.8641 73.7335 50.8641C73.7335 50.8641 73.2174 53.0839 73.7335 54.3858C74.3284 55.8863 76.8095 57.4674 76.8095 57.4674C76.8095 57.4674 74.3341 57.7565 73.7335 58.788C72.8382 60.3257 76.8095 62.3098 76.8095 62.3098C76.8095 62.3098 75.4686 65.0753 74.7588 66.2717C73.3746 68.6049 74.686 70.3521 76.8095 70.6739C85.5247 71.9945 95.7778 71.9945 95.7778 71.9945L89.6259 83" stroke="white" stroke-width="4"/>
<path d="M99.2574 36.4877C95.3799 31.4945 89.468 30.1569 85.7299 32.3645" stroke="white" stroke-width="2.05063"/>
<path d="M93.842 39.7566C84.8777 38.7308 88.3023 36.6025 85.6395 39.7566L93.842 39.7566Z" stroke="white" stroke-width="2.05063"/>
<path d="M25.1458 6.4021L33.4777 15.9416" stroke="white" stroke-width="3.70308" stroke-linecap="round"/>
<path d="M74.4902 6.4021L66.1583 15.9416" stroke="white" stroke-width="3.70308" stroke-linecap="round"/>
<path d="M48.9915 2L49.665 13.9103" stroke="white" stroke-width="3.70308" stroke-linecap="round"/>
<path d="M38.4803 29.5953C38.6991 25.9056 41.7562 23.9553 45.6548 22.4754C49.3223 21.0832 52.3242 20.9211 55.9042 22.4754C59.4843 24.0297 61.8959 26.1224 62.0538 29.5953C62.1638 32.0139 59.4915 35.3802 59.4915 35.3802L55.9042 38.9401V42.5001H45.6548V38.9401L43.0925 36.7152C43.0925 36.7152 38.2914 32.7812 38.4803 29.5953Z" stroke="white" stroke-width="2.05063" stroke-linecap="round" stroke-linejoin="round"/>
<path d="M50.801 41.649V37.0267M50.801 33.7251C50.801 33.7251 48.6982 30.7901 47.2124 31.0837C45.6885 31.3849 44.8996 32.3997 44.6491 33.725C44.1952 36.1264 50.801 37.0267 50.801 37.0267M50.801 33.7251V37.0267M50.801 33.7251C50.801 33.7251 52.9224 30.7274 54.3896 31.0837C56.1127 31.5022 56.7346 33.0887 56.4402 34.6055C56.0354 36.691 50.801 37.0267 50.801 37.0267" stroke="white" stroke-width="1.02532"/>
<path d="M46.6775 43.3804H54.88V44.6381V45.8959H46.6775V44.6381V43.3804Z" stroke="white" stroke-width="1.46474"/>
<path d="M46.6775 45.896H54.88V47.1538V48.4115H46.6775V47.1538V45.896Z" stroke="white" stroke-width="1.46474"/>
<path d="M0.538086 26.5499C9.50241 25.5241 12.2298 23.3958 14.8925 26.5499" stroke="white" stroke-width="2.05063"/>
<path d="M6.68994 31.8326C15.6543 30.8068 12.2297 28.6786 14.8925 31.8327L6.68994 31.8326Z" stroke="white" stroke-width="2.05063"/>
</svg>
