<svg width="102" height="83" viewBox="0 0 102 83" fill="none" xmlns="http://www.w3.org/2000/svg">
<path d="M28.1651 67.6956V26.8641C28.1651 25.8346 28.9996 25 30.0291 25H97.1359C98.1654 25 99 25.8346 99 26.8641V67.9186C99 68.4799 98.7471 69.0113 98.3114 69.3653L84.6011 80.505C84.2688 80.775 83.8537 80.9223 83.4256 80.9223H13.1513C11.2172 80.9223 10.5628 78.3404 12.2635 77.4192L27.1888 69.3346C27.7903 69.0088 28.1651 68.3797 28.1651 67.6956Z" stroke="white" stroke-width="4.12903"/>
<path d="M29.0969 66.9418H98.0678" stroke="white" stroke-width="4.12903"/>
<path d="M51.8468 40.6243L45.3225 47.1485L51.8468 53.6728" stroke="white" stroke-width="4.12903" stroke-linecap="round"/>
<path d="M73.1935 40.6243L79.7178 47.1485L73.1935 53.6728" stroke="white" stroke-width="4.12903" stroke-linecap="round"/>
<path d="M67.137 36.9547L58.0234 55.2756" stroke="white" stroke-width="4.12903" stroke-linecap="round"/>
<path d="M16 8L24.3883 19.1845" stroke="white" stroke-width="4.12903" stroke-linecap="round"/>
<path d="M40.3152 3L40.3967 16.9803" stroke="white" stroke-width="4.12903" stroke-linecap="round"/>
<path d="M3 26.7795L16.7794 29.1429" stroke="white" stroke-width="4.12903" stroke-linecap="round"/>
</svg>
