<svg width="182" height="182" viewBox="0 0 182 182" fill="none" xmlns="http://www.w3.org/2000/svg">
<mask id="mask0" mask-type="alpha" maskUnits="userSpaceOnUse" x="0" y="0" width="182" height="182">
<circle cx="91" cy="91" r="91" fill="#C4C4C4"/>
</mask>
<g mask="url(#mask0)">
<rect x="-1.85083" y="-12.339" width="196.975" height="207.342" fill="#B0CBFF"/>
<path d="M120.613 117.734L114.192 93.0089L93.8592 108.625L71.3858 93.0089L58.394 79.5874C60.1776 89.1304 65.3929 131.268 67.1051 128.144C68.8174 125.021 87.0815 126.843 95.9995 128.144L114.192 132.048L120.613 117.734Z" fill="#AA9898"/>
<path d="M100.991 106.584C100.996 106.533 101 106.482 101 106.429C100.997 106.48 100.994 106.532 100.991 106.584C100.489 110.962 80.3537 106.429 80.3537 106.429C80.3537 106.429 79.7115 122.39 77.5001 124C75.2886 125.61 71.4426 123.658 63.2739 129.608C55.1053 135.559 64.3215 130.882 68.1539 129.608C106.38 130.422 121.833 136.439 121.833 134.487C121.833 131.352 122.985 130.884 123.809 130.999C125.131 131.813 124.635 131.114 123.809 130.999C123.37 130.728 122.729 130.291 121.833 129.608C115.551 124.827 114.718 128.232 102 124.728C102 124.728 100.557 113.937 100.991 106.584Z" fill="#AC6373"/>
<path d="M90.4999 121.5C90.4999 121.5 95.9999 117 101.246 114.967C106.491 112.934 102.313 123.508 102.313 123.508L121.833 124.728L132.813 128.388C141.661 136.419 141.619 156.873 146.233 178.408C131.593 184.914 90.6013 191.584 87.6733 190.608C84.7454 189.632 44.5672 184.101 31.554 178.408C39.2833 156.609 39.2071 134.379 46.1938 128.388L58.3937 124.728L77.9135 123.507C77.9135 123.507 76.9999 120 76.9999 114.967C76.9999 109.934 90.4999 121.5 90.4999 121.5Z" fill="url(#paint0_linear)"/>
<path d="M61.3339 70.8276C61.3339 82.1818 64.8538 92.4427 70.5216 99.8543C76.189 107.266 83.9829 111.807 92.5536 111.807C101.124 111.807 108.918 107.266 114.586 99.8543C120.253 92.4427 123.773 82.1818 123.773 70.8276C123.773 48.0823 109.695 31 92.5536 31C75.4122 31 61.3339 48.0823 61.3339 70.8276Z" fill="#F8CBBD" stroke="#825757"/>
<path d="M84.0135 97.8889H99.8733C97.4999 100 94.9999 100.5 91.4999 100.5C87.9999 100.5 85.2335 99.1089 84.0135 97.8889Z" fill="white" stroke="#A88D8D" stroke-width="0.154237"/>
<path d="M91.9433 49.5178C102.923 54.3978 124.811 64.2437 115.123 95.8773C105.435 127.511 114.607 133.929 116 139.5C117.393 145.071 121 147.5 115.123 169.5C123.5 152.787 131.5 152.787 130.5 139.5C125.347 109.5 134 86.5 129.153 64.9475C126.015 50.9951 121.769 42.3482 109.5 35C99.2085 28.836 88 29 81.8997 31.4802C71.9 34.2374 63.8767 40.596 57.5001 51C48.0001 66.5 53.5001 107.293 50.0001 121.5C46.5001 135.707 47.5001 150 55.0001 159.5C57.6799 164.896 63.8217 170.461 74.122 172.979C75.5856 173.568 76.6396 173.711 76.6937 173.526C75.8092 173.365 74.9521 173.182 74.122 172.979C69.7725 171.227 61.8053 165.532 65.7139 152.787C70.9376 135.752 73.4233 134.467 65.7139 105.207C65.7139 105.207 63.5001 93.5 65.0001 88C66.5001 82.5 64 59 91.9433 49.5178Z" fill="url(#paint1_linear)"/>
<path d="M104.753 79.6362C104.753 79.6362 109.633 79.0384 112.073 82.0274C105.962 81.379 104.435 81.5214 99.8734 82.0274C101.093 79.4449 104.753 79.6362 104.753 79.6362Z" fill="#3F3F3F"/>
<path d="M80.3536 79.6362C80.3536 79.6362 75.4737 79.0384 73.0337 82.0274C79.1447 81.3791 80.672 81.5214 85.2336 82.0274C84.0136 79.4449 80.3536 79.6362 80.3536 79.6362Z" fill="#3F3F3F"/>
<path d="M103.88 71.0488C103.88 71.0488 111.72 70.451 114.16 73.44C108.049 72.7916 103.562 72.934 99 73.44C100.22 70.8575 103.88 71.0488 103.88 71.0488Z" fill="#917777"/>
<path d="M80.3199 71.0488C80.3199 71.0488 71.44 70.451 69 73.44C75.111 72.7916 80.6383 72.934 85.1999 73.44C83.9799 70.8575 80.3199 71.0488 80.3199 71.0488Z" fill="#917777"/>
<path d="M96.7134 84.4674C96.7134 89.5533 101.103 93.7272 106.583 93.7272C112.063 93.7272 116.453 89.5533 116.453 84.4674C116.453 79.3814 112.063 75.2075 106.583 75.2075C101.103 75.2075 96.7134 79.3814 96.7134 84.4674Z" stroke="#9B8B86"/>
<path d="M67.4338 84.4674C67.4338 89.5534 71.8237 93.7273 77.3037 93.7273C82.7837 93.7273 87.1736 89.5534 87.1736 84.4674C87.1736 79.3814 82.7837 75.2075 77.3037 75.2075C71.8237 75.2075 67.4338 79.3814 67.4338 84.4674Z" stroke="#9B8B86"/>
<path d="M96.2136 84.4674C92.5201 83.9103 90.6807 83.9574 87.6737 84.4674" stroke="#C1B9A8"/>
<path d="M92 91L89 93C91.1479 93.7061 92.3521 93.7412 94.5 93L92 91Z" fill="#E1A5A5"/>
<path d="M88.1553 134.379L90.0149 126.94C90.1412 126.435 90.8588 126.435 90.9851 126.94L92.8447 134.379C92.9236 134.694 92.6849 135 92.3596 135H88.6404C88.3151 135 88.0764 134.694 88.1553 134.379Z" fill="#C4C4C4"/>
<path d="M91.2535 130.814L90.6956 128.582C90.6577 128.431 90.4424 128.431 90.4045 128.582L89.8466 130.814C89.823 130.908 89.8946 131 89.9922 131H91.1079C91.2055 131 91.2771 130.908 91.2535 130.814Z" fill="#26204C"/>
</g>
<defs>
<linearGradient id="paint0_linear" x1="87.6733" y1="240.626" x2="87.6733" y2="113.747" gradientUnits="userSpaceOnUse">
<stop stop-color="#C0C0C0"/>
<stop offset="1" stop-color="#0F083A"/>
</linearGradient>
<linearGradient id="paint1_linear" x1="90.5416" y1="28.2856" x2="90.5416" y2="173.602" gradientUnits="userSpaceOnUse">
<stop stop-color="#362A2A"/>
<stop offset="1" stop-color="#837877"/>
</linearGradient>
</defs>
</svg>
