<svg width="122" height="84" viewBox="0 0 122 84" fill="none" xmlns="http://www.w3.org/2000/svg">
<path d="M109 10V16.8158" stroke="white" stroke-width="3.89474" stroke-linecap="round"/>
<path d="M109 25.579V32.3948" stroke="white" stroke-width="3.89474" stroke-linecap="round"/>
<path d="M98.342 21.4736H105.158" stroke="white" stroke-width="3.89474" stroke-linecap="round"/>
<path d="M112.895 21.6842H119.711" stroke="white" stroke-width="3.89474" stroke-linecap="round"/>
<path d="M16.5526 54.5789V17.5789C16.5526 15.4279 18.2964 13.6842 20.4474 13.6842H74.9737C77.1247 13.6842 78.8684 15.4279 78.8684 17.5789V27.3158M16.5526 54.5789H56.4737M16.5526 54.5789H5.99307C3.17462 54.5789 1.28933 57.4799 2.43402 60.0555L2.86677 61.0292C3.49188 62.4357 4.88667 63.3421 6.42582 63.3421H36.0263H66.2105M27.2632 37.0526C27.2632 37.0526 34.7512 42.0984 38.9474 39.9737C43.5615 37.6373 38.3639 29.9032 42.8421 27.3158C46.1345 25.4135 49.4151 25.2065 52.5789 27.3158C52.6078 27.335 52.6365 27.3547 52.665 27.3747C55.303 29.232 59.3315 30.4572 61.3122 27.9106L63.2895 25.3684" stroke="white" stroke-width="3.89474"/>
<path d="M6.81567 55.5526V11.7368C6.81567 6.35934 11.175 2 16.5525 2H76.9209C82.2984 2 86.6578 6.35933 86.6578 11.7368V43.8684" stroke="white" stroke-width="3.89474"/>
<path d="M71.3551 49.4474C71.3551 49.4474 66.2879 58.5296 65.9999 62.1053C65.566 67.4922 72.3447 67.9827 74.763 72.8158C75.6793 74.647 76.3805 75.6633 76.7104 77.6842C76.9555 79.1853 76.7104 81.5789 76.7104 81.5789H92.2894C92.2894 81.5789 95.381 76.3477 97 72.8158C98.363 69.8423 99.0602 67.816 100.079 65.0263C101.39 61.4367 100.363 58.8981 99.1051 55.2895C96.4447 47.6556 88.9999 42.5 83.5262 41.6579C81.5287 41.3506 80.1183 45.5526 80.1183 45.5526M80.1183 45.5526L83.5262 54.3158L80.6051 62.1053L74.763 59.1842L67.9472 39.7105V31.2268C67.9472 30.364 68.9667 29.9062 69.6116 30.4794L76.7104 36.7895L80.1183 45.5526Z" stroke="white" stroke-width="3.89474"/>
</svg>
