<svg width="185" height="185" viewBox="0 0 185 185" fill="none" xmlns="http://www.w3.org/2000/svg">
<mask id="mask0" mask-type="alpha" maskUnits="userSpaceOnUse" x="0" y="0" width="185" height="185">
<circle cx="92.5" cy="92.5" r="92.5" fill="#C4C4C4"/>
</mask>
<g mask="url(#mask0)">
<rect x="-1.88159" y="-12.5424" width="200.222" height="210.76" fill="#F37777"/>
<path d="M122.601 119.675L116.074 94.542L95.406 110.415L72.5621 94.542L59.3562 80.8994C61.1692 90.5997 66.4704 133.431 68.2109 130.257C69.9514 127.082 88.5166 128.934 97.5816 130.257L116.074 134.225L122.601 119.675Z" fill="#AA9898"/>
<path d="M102.655 108.341C102.661 108.289 102.664 108.237 102.665 108.183C102.662 108.235 102.658 108.288 102.655 108.341C102.146 112.791 81.6782 108.183 81.6782 108.183C81.6782 108.183 81.0254 124.407 78.7775 126.044C76.5296 127.681 72.6201 125.697 64.3168 131.745C56.0135 137.793 65.3817 133.04 69.2772 131.745C108.134 132.572 123.841 138.688 123.841 136.704C123.841 133.517 125.013 133.042 125.85 133.158C127.194 133.985 126.689 133.275 125.85 133.158C125.403 132.883 124.752 132.438 123.841 131.745C117.456 126.885 116.609 130.346 103.681 126.784C103.681 126.784 102.214 115.815 102.655 108.341Z" fill="#AC6373"/>
<path d="M91.9911 123.503C91.9911 123.503 97.5818 118.929 102.914 116.862C108.246 114.796 103.999 125.544 103.999 125.544L123.841 126.784L135.002 130.505C143.995 138.668 143.953 159.459 148.643 181.349C133.761 187.963 92.0942 194.742 89.118 193.75C86.1418 192.758 45.3013 187.136 32.0736 181.349C39.9304 159.191 39.8528 136.594 46.9547 130.505L59.3557 126.784L79.1972 125.543C79.1972 125.543 78.2686 121.978 78.2686 116.862C78.2686 111.746 91.9911 123.503 91.9911 123.503Z" fill="url(#paint0_linear)"/>
<path d="M62.3446 71.9951C62.3446 83.5365 65.9225 93.9665 71.6837 101.5C77.4445 109.034 85.3669 113.65 94.0788 113.65C102.791 113.65 110.713 109.034 116.474 101.5C122.235 93.9665 125.813 83.5365 125.813 71.9951C125.813 48.8749 111.503 31.511 94.0788 31.511C76.6549 31.511 62.3446 48.8749 62.3446 71.9951Z" fill="#F8CBBD" stroke="#825757" stroke-width="1.01648"/>
<path d="M85.398 99.5024H101.519C99.1067 101.648 96.5655 102.157 93.0078 102.157C89.4502 102.157 86.6381 100.743 85.398 99.5024Z" fill="white" stroke="#A88D8D" stroke-width="0.15678"/>
<path d="M93.4588 50.334C104.62 55.2944 126.868 65.3026 117.021 97.4577C107.173 129.613 116.496 136.137 117.912 141.799C119.328 147.462 122.994 149.931 117.021 172.294C125.536 155.305 133.668 155.305 132.651 141.799C127.413 111.305 136.209 87.9258 131.282 66.0181C128.092 51.8356 123.776 43.0463 111.305 35.5769C100.844 29.3113 89.4505 29.478 83.2496 31.9991C73.085 34.8017 64.9294 41.2652 58.4477 51.8407C48.7912 67.5962 54.3818 109.062 50.8241 123.503C47.2664 137.944 48.2829 152.473 55.9066 162.129C58.6305 167.614 64.8735 173.271 75.3437 175.83C76.8314 176.429 77.9027 176.575 77.9577 176.387C77.0587 176.222 76.1875 176.036 75.3437 175.83C70.9224 174.049 62.824 168.261 66.7969 155.305C72.1067 137.99 74.6335 136.683 66.7969 106.941C66.7969 106.941 64.5466 95.0412 66.0713 89.4506C67.5961 83.8599 65.0548 59.9725 93.4588 50.334Z" fill="url(#paint1_linear)"/>
<path d="M106.48 80.949C106.48 80.949 111.44 80.3413 113.92 83.3795C107.708 82.7205 106.156 82.8652 101.519 83.3795C102.759 80.7545 106.48 80.949 106.48 80.949Z" fill="#3F3F3F"/>
<path d="M81.6779 80.949C81.6779 80.949 76.7175 80.3413 74.2373 83.3795C80.4491 82.7205 82.0015 82.8652 86.6383 83.3795C85.3982 80.7545 81.6779 80.949 81.6779 80.949Z" fill="#3F3F3F"/>
<path d="M105.592 72.2199C105.592 72.2199 113.561 71.6123 116.042 74.6505C109.83 73.9914 105.268 74.1362 100.631 74.6505C101.872 72.0254 105.592 72.2199 105.592 72.2199Z" fill="#917777"/>
<path d="M81.6437 72.2199C81.6437 72.2199 72.6174 71.6123 70.1372 74.6505C76.349 73.9914 81.9673 74.1362 86.6041 74.6505C85.364 72.0254 81.6437 72.2199 81.6437 72.2199Z" fill="#917777"/>
<path d="M98.3072 85.8597C98.3072 91.0295 102.769 95.2723 108.34 95.2723C113.91 95.2723 118.372 91.0295 118.372 85.8597C118.372 80.6899 113.91 76.4472 108.34 76.4472C102.769 76.4472 98.3072 80.6899 98.3072 85.8597Z" stroke="#9B8B86" stroke-width="1.01648"/>
<path d="M68.545 85.8597C68.545 91.0295 73.0073 95.2723 78.5776 95.2723C84.1479 95.2723 88.6102 91.0295 88.6102 85.8597C88.6102 80.6899 84.1479 76.4472 78.5776 76.4472C73.0073 76.4472 68.545 80.6899 68.545 85.8597Z" stroke="#9B8B86" stroke-width="1.01648"/>
<path d="M97.7993 85.8597C94.0449 85.2935 92.1752 85.3413 89.1186 85.8597" stroke="#C1B9A8" stroke-width="1.01648"/>
<path d="M93.5165 92.5L90.467 94.533C92.6503 95.2507 93.8744 95.2864 96.0577 94.533L93.5165 92.5Z" fill="#E1A5A5"/>
<path d="M89.6083 136.594L91.4986 129.033C91.6269 128.519 92.3564 128.519 92.4847 129.033L94.375 136.594C94.4552 136.915 94.2126 137.225 93.8819 137.225H90.1014C89.7707 137.225 89.5281 136.915 89.6083 136.594Z" fill="#C4C4C4"/>
<path d="M92.7576 132.97L92.1905 130.702C92.152 130.548 91.9331 130.548 91.8946 130.702L91.3276 132.97C91.3035 133.066 91.3763 133.159 91.4755 133.159H92.6096C92.7088 133.159 92.7816 133.066 92.7576 132.97Z" fill="#26204C"/>
</g>
<defs>
<linearGradient id="paint0_linear" x1="89.118" y1="244.592" x2="89.118" y2="115.622" gradientUnits="userSpaceOnUse">
<stop stop-color="#C0C0C0"/>
<stop offset="1" stop-color="#0F083A"/>
</linearGradient>
<linearGradient id="paint1_linear" x1="92.0339" y1="28.7519" x2="92.0339" y2="176.464" gradientUnits="userSpaceOnUse">
<stop stop-color="#362A2A"/>
<stop offset="1" stop-color="#837877"/>
</linearGradient>
</defs>
</svg>
