<svg width="49" height="41" viewBox="0 0 49 41" fill="none" xmlns="http://www.w3.org/2000/svg">
<g opacity="0.5">
<path opacity="0.5" d="M11.2744 1.59604C9.94673 1.21702 8.56319 1.98606 8.18417 3.31373C7.80516 4.6414 8.57419 6.02495 9.90186 6.40396L11.2744 1.59604ZM44.5189 16.2862C45.8466 16.6653 47.2301 15.8962 47.6091 14.5686C47.9882 13.2409 47.2191 11.8573 45.8915 11.4783L44.5189 16.2862ZM9.90186 6.40396L44.5189 16.2862L45.8915 11.4783L11.2744 1.59604L9.90186 6.40396Z" fill="#ADADD5"/>
<path opacity="0.5" d="M7.98034 13.135C6.65267 12.756 5.26912 13.5251 4.89011 14.8527C4.51109 16.1804 5.28013 17.5639 6.6078 17.943L7.98034 13.135ZM41.2249 27.8253C42.5525 28.2043 43.9361 27.4352 44.3151 26.1076C44.6941 24.7799 43.9251 23.3963 42.5974 23.0173L41.2249 27.8253ZM6.6078 17.943L41.2249 27.8253L42.5974 23.0173L7.98034 13.135L6.6078 17.943Z" fill="#ADADD5"/>
<path opacity="0.5" d="M4.68627 24.6741C3.3586 24.2951 1.97505 25.0641 1.59604 26.3918C1.21702 27.7195 1.98606 29.103 3.31373 29.482L4.68627 24.6741ZM37.9308 39.3643C39.2585 39.7433 40.642 38.9743 41.021 37.6466C41.4 36.319 40.631 34.9354 39.3033 34.5564L37.9308 39.3643ZM3.31373 29.482L37.9308 39.3643L39.3033 34.5564L4.68627 24.6741L3.31373 29.482Z" fill="#ADADD5"/>
</g>
</svg>
