<svg width="65" height="60" viewBox="0 0 65 60" fill="none" xmlns="http://www.w3.org/2000/svg">
<path d="M48.2011 37.6627C47.8402 37.231 47.137 37.4813 47.13 38.0439L47.069 42.9374C47.0624 43.4681 46.8243 43.9695 46.4171 44.3099L42.6626 47.449C42.2309 47.8099 42.4812 48.5132 43.0439 48.5202L47.9374 48.5811C48.4681 48.5877 48.9694 48.8259 49.3098 49.233L52.4489 52.9875C52.8099 53.4192 53.5131 53.1689 53.5201 52.6063L53.5811 47.7128C53.5877 47.1821 53.8258 46.6807 54.233 46.3403L57.9875 43.2012C58.4192 42.8402 58.1689 42.137 57.6062 42.13L52.7127 42.0691C52.182 42.0625 51.6807 41.8243 51.3402 41.4172L48.2011 37.6627Z" stroke="#B0CBFF" stroke-width="1.21232"/>
<path d="M28.3608 11.1502C28.4163 10.828 28.0271 10.6232 27.7929 10.8512L22.5174 15.9883C21.8761 16.6127 20.9057 16.7532 20.1137 16.3363L13.5979 12.9064C13.3086 12.7542 12.9935 13.061 13.138 13.3542L16.3934 19.9589C16.7891 20.7618 16.6229 21.7281 15.9816 22.3525L10.7062 27.4895C10.4719 27.7176 10.6664 28.1121 10.9899 28.0653L18.2774 27.0102C19.1632 26.8819 20.0308 27.3386 20.4265 28.1415L23.6819 34.7462C23.8264 35.0394 24.2617 34.9763 24.3172 34.6542L25.5656 27.3974C25.7174 26.5153 26.4199 25.8313 27.3057 25.703L34.5931 24.6479C34.9166 24.6011 34.9912 24.1676 34.7019 24.0153L28.1861 20.5855C27.3941 20.1686 26.9606 19.2891 27.1124 18.407L28.3608 11.1502Z" stroke="#F37777" stroke-width="1.72854"/>
</svg>
