<svg width="507" height="420" viewBox="0 0 507 420" fill="none" xmlns="http://www.w3.org/2000/svg">
<path d="M487.198 393.021C486.763 392.501 485.917 392.802 485.908 393.48L485.835 399.371C485.827 400.01 485.54 400.613 485.05 401.023L480.53 404.802C480.011 405.237 480.312 406.083 480.989 406.092L486.88 406.165C487.519 406.173 488.123 406.46 488.533 406.95L492.312 411.47C492.746 411.989 493.593 411.688 493.601 411.011L493.675 405.12C493.683 404.481 493.969 403.877 494.459 403.467L498.979 399.688C499.499 399.254 499.198 398.407 498.52 398.399L492.629 398.326C491.99 398.318 491.387 398.031 490.977 397.541L487.198 393.021Z" stroke="#B0CBFF" stroke-width="1.45946"/>
<path d="M426.433 27.1352L428.091 7.75366L444.45 18.2792L426.433 27.1352Z" stroke="#83D4D1" stroke-width="2"/>
<circle r="9" transform="matrix(-1 0 0 1 10 275)" stroke="#83D4D1" stroke-width="2"/>
</svg>
