<svg width="507" height="155" viewBox="0 0 507 155" fill="none" xmlns="http://www.w3.org/2000/svg">
<path d="M485.908 128.48L485.835 134.371C485.827 135.01 485.54 135.613 485.05 136.023L480.53 139.802C480.011 140.237 480.312 141.083 480.989 141.092L486.88 141.165C487.519 141.173 488.123 141.46 488.533 141.95L492.312 146.47C492.746 146.989 493.593 146.688 493.601 146.011L493.675 140.12C493.683 139.481 493.969 138.877 494.459 138.467L498.979 134.688C499.499 134.254 499.198 133.407 498.52 133.399L492.629 133.326C491.99 133.318 491.387 133.031 490.977 132.541L487.198 128.021C486.763 127.501 485.917 127.802 485.908 128.48Z" stroke="#B0CBFF" stroke-width="1.45946"/>
<circle r="9" transform="matrix(-1 0 0 1 10 10)" stroke="#83D4D1" stroke-width="2"/>
</svg>
