<svg width="974" height="423" viewBox="0 0 974 423" fill="none" xmlns="http://www.w3.org/2000/svg">
<path d="M13.3643 382.209C13.478 381.798 14.0417 381.75 14.223 382.136L16.7272 387.469C17.0323 388.119 17.6061 388.603 18.2979 388.794L23.9763 390.364C24.3874 390.478 24.4352 391.042 24.0491 391.223L18.7163 393.727C18.0666 394.032 17.5826 394.606 17.3912 395.298L15.8209 400.976C15.7072 401.387 15.1435 401.435 14.9622 401.049L12.458 395.716C12.1529 395.067 11.5791 394.583 10.8873 394.391L5.20888 392.821C4.79779 392.707 4.74998 392.143 5.13605 391.962L10.4689 389.458C11.1186 389.153 11.6026 388.579 11.794 387.887L13.3643 382.209Z" stroke="#FF4185" stroke-width="2"/>
<path d="M959.821 236.209C959.707 235.798 959.143 235.75 958.962 236.136L956.458 241.469C956.153 242.119 955.579 242.603 954.887 242.794L949.209 244.364C948.798 244.478 948.75 245.042 949.136 245.223L954.469 247.727C955.118 248.032 955.603 248.606 955.794 249.298L957.364 254.976C957.478 255.387 958.042 255.435 958.223 255.049L960.727 249.716C961.032 249.067 961.606 248.583 962.298 248.391L967.976 246.821C968.387 246.707 968.435 246.143 968.049 245.962L962.716 243.458C962.066 243.153 961.582 242.579 961.391 241.887L959.821 236.209Z" stroke="#FF4185" stroke-width="2"/>
<path d="M825 415.506C825 415.506 819.545 408.564 814.659 409.022C810.386 409.422 806.307 415.506 806.307 415.506C806.307 415.506 802.804 421.724 798.75 421.991C794.347 422.281 790 415.506 790 415.506" stroke="#B0CBFF" stroke-width="2"/>
<circle cx="280" cy="10" r="9" stroke="#FFAF52" stroke-width="2"/>
</svg>
